<svg width="96" height="20" viewBox="0 0 96 20" fill="none" xmlns="http://www.w3.org/2000/svg">
<path fill-rule="evenodd" clip-rule="evenodd" d="M90.74 0C91.288 0 91.7468 1.65555 91.8645 3.87545C94.0844 3.99319 95.74 4.45198 95.74 5C95.74 5.54802 94.0844 6.00681 91.8645 6.12454C91.7468 8.34445 91.288 10 90.74 10C90.192 10 89.7332 8.34445 89.6154 6.12454C87.3955 6.00681 85.74 5.54802 85.74 5C85.74 4.45198 87.3955 3.99319 89.6154 3.87545C89.7332 1.65555 90.192 0 90.74 0ZM21.9015 6.3999H24.5295V18.9999H21.9015V6.3999ZM4.68 7.3179H0V18.9999H2.808V15.2019H4.356C5.568 15.2019 6.528 15.1119 7.236 14.9319C7.956 14.7519 8.478 14.4459 8.802 14.0139C9.138 13.5819 9.306 12.9819 9.306 12.2139V9.9999C9.306 9.3039 9.15 8.7639 8.838 8.3799C8.538 7.9839 8.052 7.7079 7.38 7.5519C6.72 7.3959 5.82 7.3179 4.68 7.3179ZM6.138 13.0239C5.838 13.1919 5.322 13.2759 4.59 13.2759H2.808V9.3159H4.554C5.346 9.3159 5.88 9.3759 6.156 9.4959C6.444 9.6159 6.588 9.8679 6.588 10.2519V12.1239C6.588 12.5439 6.438 12.8439 6.138 13.0239ZM14.0212 19.1259C14.3692 19.1619 14.8132 19.1799 15.3532 19.1799C15.8572 19.1799 16.2892 19.1619 16.6492 19.1259C17.0452 19.0899 17.4472 19.0119 17.8552 18.8919C18.2752 18.7599 18.6052 18.5919 18.8452 18.3879C19.1212 18.1599 19.3432 17.8419 19.5112 17.4339C19.6912 17.0259 19.7812 16.5519 19.7812 16.0119V13.4379C19.7812 12.8379 19.6912 12.3219 19.5112 11.8899C19.3192 11.4699 19.0852 11.1459 18.8092 10.9179C18.5452 10.6899 18.1972 10.5099 17.7652 10.3779C17.3692 10.2579 17.0032 10.1859 16.6672 10.1619C16.3432 10.1259 15.9052 10.1079 15.3532 10.1079C14.9812 10.1079 14.5672 10.1199 14.1112 10.1439C13.7152 10.1799 13.3072 10.2699 12.8872 10.4139C12.4792 10.5459 12.1492 10.7139 11.8972 10.9179C11.6092 11.1579 11.3752 11.4939 11.1952 11.9259C11.0152 12.3579 10.9252 12.8619 10.9252 13.4379V16.0119C10.9252 16.5759 11.0152 17.0559 11.1952 17.4519C11.3752 17.8599 11.5972 18.1779 11.8612 18.4059C12.1252 18.6219 12.4732 18.7899 12.9052 18.9099C13.3012 19.0179 13.6732 19.0899 14.0212 19.1259ZM16.4692 17.4339C16.2172 17.5059 15.8452 17.5419 15.3532 17.5419C14.8612 17.5419 14.4892 17.5059 14.2372 17.4339C13.9852 17.3499 13.8052 17.2239 13.6972 17.0559C13.6012 16.8879 13.5532 16.6419 13.5532 16.3179V13.0239C13.5532 12.5439 13.6792 12.2079 13.9312 12.0159C14.1832 11.8239 14.6572 11.7279 15.3532 11.7279C16.0492 11.7279 16.5232 11.8239 16.7752 12.0159C17.0272 12.2079 17.1532 12.5439 17.1532 13.0239V16.3179C17.1532 16.6419 17.0992 16.8879 16.9912 17.0559C16.8952 17.2239 16.7212 17.3499 16.4692 17.4339ZM27.5396 18.9639C27.9476 19.1079 28.5596 19.1799 29.3756 19.1799C30.3476 19.1799 31.0076 19.1019 31.3556 18.9459C31.7036 18.8019 31.9796 18.5559 32.1836 18.2079V18.9999H34.7576V13.0059C34.7576 12.2259 34.6256 11.6319 34.3616 11.2239C34.0976 10.8159 33.6596 10.5279 33.0476 10.3599C32.4476 10.1919 31.5896 10.1079 30.4736 10.1079C29.2016 10.1079 28.0916 10.1679 27.1436 10.2879V11.9439C28.4396 11.7999 29.4596 11.7279 30.2036 11.7279C30.7436 11.7279 31.1456 11.7639 31.4096 11.8359C31.6856 11.9079 31.8716 12.0339 31.9676 12.2139C32.0756 12.3939 32.1296 12.6699 32.1296 13.0419V13.6359H29.1776C28.4936 13.6359 27.9536 13.7259 27.5576 13.9059C27.1736 14.0739 26.8916 14.3559 26.7116 14.7519C26.5436 15.1479 26.4596 15.6939 26.4596 16.3899C26.4596 17.1699 26.5376 17.7579 26.6936 18.1539C26.8616 18.5379 27.1436 18.8079 27.5396 18.9639ZM31.5356 17.4879C31.3076 17.5239 30.9296 17.5419 30.4016 17.5419C29.9576 17.5419 29.6456 17.5179 29.4656 17.4699C29.2976 17.4219 29.1836 17.3199 29.1236 17.1639C29.0636 17.0079 29.0336 16.7319 29.0336 16.3359C29.0336 15.9279 29.0636 15.6459 29.1236 15.4899C29.1836 15.3219 29.2976 15.2139 29.4656 15.1659C29.6336 15.1059 29.9216 15.0759 30.3296 15.0759H32.1296V16.7679C32.1296 16.9359 32.1056 17.0619 32.0576 17.1459C32.0096 17.2539 31.9496 17.3319 31.8776 17.3799C31.8176 17.4279 31.7036 17.4639 31.5356 17.4879ZM37.0697 10.2879H39.5717V11.8179C39.5717 11.5419 39.6857 11.2719 39.9137 11.0079C40.1417 10.7439 40.4297 10.5279 40.7777 10.3599C41.1377 10.1919 41.4917 10.1079 41.8397 10.1079H42.7757V12.2859H41.8757C41.1317 12.2859 40.5797 12.3999 40.2197 12.6279C39.8717 12.8559 39.6977 13.2339 39.6977 13.7619V18.9999H37.0697V10.2879ZM44.044 18.9099C45.4 19.0899 46.546 19.1799 47.482 19.1799C47.974 19.1799 48.406 19.1619 48.778 19.1259C49.186 19.0899 49.576 19.0239 49.948 18.9279C50.332 18.8319 50.644 18.6999 50.884 18.5319C51.136 18.3519 51.34 18.1059 51.496 17.7939C51.652 17.4819 51.73 17.1159 51.73 16.6959V15.5979C51.73 14.2059 50.662 13.5099 48.526 13.5099H47.374C47.074 13.5099 46.846 13.4559 46.69 13.3479C46.534 13.2279 46.456 13.0899 46.456 12.9339V12.4659C46.456 12.1779 46.552 11.9799 46.744 11.8719C46.96 11.7759 47.422 11.7279 48.13 11.7279C48.37 11.7279 49.426 11.7999 51.298 11.9439V10.2699C49.81 10.1619 48.778 10.1079 48.202 10.1079C46.75 10.1079 45.664 10.2699 44.944 10.5939C44.224 10.9059 43.864 11.4399 43.864 12.1959V13.2579C43.864 13.9659 44.116 14.5059 44.62 14.8779C45.124 15.2379 45.838 15.4179 46.762 15.4179H47.896C48.388 15.4179 48.718 15.4839 48.886 15.6159C49.054 15.7359 49.138 15.9459 49.138 16.2459V16.7859C49.138 17.0739 49.006 17.2719 48.742 17.3799C48.478 17.4879 48.07 17.5419 47.518 17.5419C46.87 17.5419 45.712 17.4159 44.044 17.1639V18.9099ZM58.0371 19.1799C57.5931 19.1799 57.2211 19.1619 56.9211 19.1259C56.6211 19.0899 56.3211 19.0179 56.0211 18.9099C55.6851 18.8019 55.4091 18.6519 55.1931 18.4599C54.9891 18.2679 54.8211 18.0039 54.6891 17.6679C54.5451 17.3199 54.4731 16.9179 54.4731 16.4619V11.9079H52.7091V10.2879H54.4731V7.7679H57.1011V10.2879H59.4951V11.9079H57.1011V16.0119C57.1011 16.4319 57.1371 16.7499 57.2091 16.9659C57.2811 17.1699 57.4191 17.3199 57.6231 17.4159C57.8271 17.4999 58.1391 17.5419 58.5591 17.5419C58.7271 17.5419 59.0391 17.5119 59.4951 17.4519V19.0899C58.9311 19.1499 58.4451 19.1799 58.0371 19.1799ZM60.7591 16.3539C60.7591 18.2379 62.3011 19.1799 65.3851 19.1799C66.5971 19.1799 67.7371 19.0659 68.8051 18.8379V17.1639C67.7251 17.4159 66.7531 17.5419 65.8891 17.5419C64.9531 17.5419 64.3051 17.4339 63.9451 17.2179C63.5851 17.0019 63.4051 16.6419 63.4051 16.1379V15.3459H69.0571V13.2219C69.0571 12.0939 68.7331 11.2959 68.0851 10.8279C67.4491 10.3479 66.4411 10.1079 65.0611 10.1079C63.5971 10.1079 62.5111 10.3539 61.8031 10.8459C61.1071 11.3379 60.7591 12.1299 60.7591 13.2219V16.3539ZM66.1951 11.9439C66.4351 12.0879 66.5551 12.3039 66.5551 12.5919V13.8519H63.4051V12.5919C63.4051 12.3159 63.5191 12.0999 63.7471 11.9439C63.9631 11.7999 64.3891 11.7279 65.0251 11.7279C65.5771 11.7279 65.9671 11.7999 66.1951 11.9439ZM71.0658 10.2879H73.5678V11.8179C73.5678 11.5419 73.6818 11.2719 73.9098 11.0079C74.1378 10.7439 74.4258 10.5279 74.7738 10.3599C75.1338 10.1919 75.4878 10.1079 75.8358 10.1079H76.7718V12.2859H75.8718C75.1278 12.2859 74.5758 12.3999 74.2158 12.6279C73.8678 12.8559 73.6938 13.2339 73.6938 13.7619V18.9999H71.0658V10.2879ZM80.8121 10.2879H78.2201V18.9999H80.8481V12.9519C80.8481 12.6039 80.8901 12.3459 80.9741 12.1779C81.0581 12.0099 81.2201 11.8959 81.4601 11.8359C81.7001 11.7639 82.0781 11.7279 82.5941 11.7279C83.0021 11.7279 83.3021 11.7639 83.4941 11.8359C83.6981 11.9079 83.8301 12.0279 83.8901 12.1959C83.9621 12.3639 83.9981 12.6159 83.9981 12.9519V18.9999H86.6261V12.6099C86.6261 11.7459 86.3981 11.1159 85.9421 10.7199C85.4981 10.3119 84.7181 10.1079 83.6021 10.1079C81.9461 10.1079 81.0161 10.5219 80.8121 11.3499V10.2879Z" fill="white"/>
</svg>
