<svg width="96" height="20" viewBox="0 0 96 20" fill="none" xmlns="http://www.w3.org/2000/svg">
<path fill-rule="evenodd" clip-rule="evenodd" d="M91 0C91.548 0 92.0068 1.65555 92.1245 3.87545C94.3445 3.99319 96 4.45198 96 5C96 5.54802 94.3445 6.00681 92.1245 6.12454C92.0068 8.34445 91.548 10 91 10C90.452 10 89.9932 8.34445 89.8755 6.12454C87.6555 6.00681 86 5.54802 86 5C86 4.45198 87.6555 3.99319 89.8755 3.87545C89.9932 1.65555 90.452 0 91 0ZM22.1615 6.3999H24.7895V18.9999H22.1615V6.3999ZM4.94001 7.3179H0.26001V18.9999H3.06801V15.2019H4.61601C5.82801 15.2019 6.78801 15.1119 7.49601 14.9319C8.21601 14.7519 8.73801 14.4459 9.06201 14.0139C9.39801 13.5819 9.56601 12.9819 9.56601 12.2139V9.9999C9.56601 9.3039 9.41001 8.7639 9.09801 8.3799C8.79801 7.9839 8.31201 7.7079 7.64001 7.5519C6.98001 7.3959 6.08001 7.3179 4.94001 7.3179ZM6.39801 13.0239C6.09801 13.1919 5.58201 13.2759 4.85001 13.2759H3.06801V9.3159H4.81401C5.60601 9.3159 6.14001 9.3759 6.41601 9.4959C6.70401 9.6159 6.84801 9.8679 6.84801 10.2519V12.1239C6.84801 12.5439 6.69801 12.8439 6.39801 13.0239ZM14.2812 19.1259C14.6292 19.1619 15.0732 19.1799 15.6132 19.1799C16.1172 19.1799 16.5492 19.1619 16.9092 19.1259C17.3052 19.0899 17.7072 19.0119 18.1152 18.8919C18.5352 18.7599 18.8652 18.5919 19.1052 18.3879C19.3812 18.1599 19.6032 17.8419 19.7712 17.4339C19.9512 17.0259 20.0412 16.5519 20.0412 16.0119V13.4379C20.0412 12.8379 19.9512 12.3219 19.7712 11.8899C19.5792 11.4699 19.3452 11.1459 19.0692 10.9179C18.8052 10.6899 18.4572 10.5099 18.0252 10.3779C17.6292 10.2579 17.2632 10.1859 16.9272 10.1619C16.6032 10.1259 16.1652 10.1079 15.6132 10.1079C15.2412 10.1079 14.8272 10.1199 14.3712 10.1439C13.9752 10.1799 13.5672 10.2699 13.1472 10.4139C12.7392 10.5459 12.4092 10.7139 12.1572 10.9179C11.8692 11.1579 11.6352 11.4939 11.4552 11.9259C11.2752 12.3579 11.1852 12.8619 11.1852 13.4379V16.0119C11.1852 16.5759 11.2752 17.0559 11.4552 17.4519C11.6352 17.8599 11.8572 18.1779 12.1212 18.4059C12.3852 18.6219 12.7332 18.7899 13.1652 18.9099C13.5612 19.0179 13.9332 19.0899 14.2812 19.1259ZM16.7292 17.4339C16.4772 17.5059 16.1052 17.5419 15.6132 17.5419C15.1212 17.5419 14.7492 17.5059 14.4972 17.4339C14.2452 17.3499 14.0652 17.2239 13.9572 17.0559C13.8612 16.8879 13.8132 16.6419 13.8132 16.3179V13.0239C13.8132 12.5439 13.9392 12.2079 14.1912 12.0159C14.4432 11.8239 14.9172 11.7279 15.6132 11.7279C16.3092 11.7279 16.7832 11.8239 17.0352 12.0159C17.2872 12.2079 17.4132 12.5439 17.4132 13.0239V16.3179C17.4132 16.6419 17.3592 16.8879 17.2512 17.0559C17.1552 17.2239 16.9812 17.3499 16.7292 17.4339ZM27.7996 18.9639C28.2076 19.1079 28.8196 19.1799 29.6356 19.1799C30.6076 19.1799 31.2676 19.1019 31.6156 18.9459C31.9636 18.8019 32.2396 18.5559 32.4436 18.2079V18.9999H35.0176V13.0059C35.0176 12.2259 34.8856 11.6319 34.6216 11.2239C34.3576 10.8159 33.9196 10.5279 33.3076 10.3599C32.7076 10.1919 31.8496 10.1079 30.7336 10.1079C29.4616 10.1079 28.3516 10.1679 27.4036 10.2879V11.9439C28.6996 11.7999 29.7196 11.7279 30.4636 11.7279C31.0036 11.7279 31.4056 11.7639 31.6696 11.8359C31.9456 11.9079 32.1316 12.0339 32.2276 12.2139C32.3356 12.3939 32.3896 12.6699 32.3896 13.0419V13.6359H29.4376C28.7536 13.6359 28.2136 13.7259 27.8176 13.9059C27.4336 14.0739 27.1516 14.3559 26.9716 14.7519C26.8036 15.1479 26.7196 15.6939 26.7196 16.3899C26.7196 17.1699 26.7976 17.7579 26.9536 18.1539C27.1216 18.5379 27.4036 18.8079 27.7996 18.9639ZM31.7956 17.4879C31.5676 17.5239 31.1896 17.5419 30.6616 17.5419C30.2176 17.5419 29.9056 17.5179 29.7256 17.4699C29.5576 17.4219 29.4436 17.3199 29.3836 17.1639C29.3236 17.0079 29.2936 16.7319 29.2936 16.3359C29.2936 15.9279 29.3236 15.6459 29.3836 15.4899C29.4436 15.3219 29.5576 15.2139 29.7256 15.1659C29.8936 15.1059 30.1816 15.0759 30.5896 15.0759H32.3896V16.7679C32.3896 16.9359 32.3656 17.0619 32.3176 17.1459C32.2696 17.2539 32.2096 17.3319 32.1376 17.3799C32.0776 17.4279 31.9636 17.4639 31.7956 17.4879ZM37.3297 10.2879H39.8317V11.8179C39.8317 11.5419 39.9457 11.2719 40.1737 11.0079C40.4017 10.7439 40.6897 10.5279 41.0377 10.3599C41.3977 10.1919 41.7517 10.1079 42.0997 10.1079H43.0357V12.2859H42.1357C41.3917 12.2859 40.8397 12.3999 40.4797 12.6279C40.1317 12.8559 39.9577 13.2339 39.9577 13.7619V18.9999H37.3297V10.2879ZM44.304 18.9099C45.66 19.0899 46.806 19.1799 47.742 19.1799C48.234 19.1799 48.666 19.1619 49.038 19.1259C49.446 19.0899 49.836 19.0239 50.208 18.9279C50.592 18.8319 50.904 18.6999 51.144 18.5319C51.396 18.3519 51.6 18.1059 51.756 17.7939C51.912 17.4819 51.99 17.1159 51.99 16.6959V15.5979C51.99 14.2059 50.922 13.5099 48.786 13.5099H47.634C47.334 13.5099 47.106 13.4559 46.95 13.3479C46.794 13.2279 46.716 13.0899 46.716 12.9339V12.4659C46.716 12.1779 46.812 11.9799 47.004 11.8719C47.22 11.7759 47.682 11.7279 48.39 11.7279C48.63 11.7279 49.686 11.7999 51.558 11.9439V10.2699C50.07 10.1619 49.038 10.1079 48.462 10.1079C47.01 10.1079 45.924 10.2699 45.204 10.5939C44.484 10.9059 44.124 11.4399 44.124 12.1959V13.2579C44.124 13.9659 44.376 14.5059 44.88 14.8779C45.384 15.2379 46.098 15.4179 47.022 15.4179H48.156C48.648 15.4179 48.978 15.4839 49.146 15.6159C49.314 15.7359 49.398 15.9459 49.398 16.2459V16.7859C49.398 17.0739 49.266 17.2719 49.002 17.3799C48.738 17.4879 48.33 17.5419 47.778 17.5419C47.13 17.5419 45.972 17.4159 44.304 17.1639V18.9099ZM58.2971 19.1799C57.8531 19.1799 57.4811 19.1619 57.1811 19.1259C56.8811 19.0899 56.5811 19.0179 56.2811 18.9099C55.9451 18.8019 55.6691 18.6519 55.4531 18.4599C55.2491 18.2679 55.0811 18.0039 54.9491 17.6679C54.8051 17.3199 54.7331 16.9179 54.7331 16.4619V11.9079H52.9691V10.2879H54.7331V7.7679H57.3611V10.2879H59.7551V11.9079H57.3611V16.0119C57.3611 16.4319 57.3971 16.7499 57.4691 16.9659C57.5411 17.1699 57.6791 17.3199 57.8831 17.4159C58.0871 17.4999 58.3991 17.5419 58.8191 17.5419C58.9871 17.5419 59.2991 17.5119 59.7551 17.4519V19.0899C59.1911 19.1499 58.7051 19.1799 58.2971 19.1799ZM61.0192 16.3539C61.0192 18.2379 62.5611 19.1799 65.6451 19.1799C66.8571 19.1799 67.9971 19.0659 69.0651 18.8379V17.1639C67.9851 17.4159 67.0131 17.5419 66.1491 17.5419C65.2132 17.5419 64.5651 17.4339 64.2052 17.2179C63.8451 17.0019 63.6651 16.6419 63.6651 16.1379V15.3459H69.3171V13.2219C69.3171 12.0939 68.9931 11.2959 68.3451 10.8279C67.7091 10.3479 66.7011 10.1079 65.3212 10.1079C63.8572 10.1079 62.7712 10.3539 62.0632 10.8459C61.3672 11.3379 61.0192 12.1299 61.0192 13.2219V16.3539ZM66.4551 11.9439C66.6951 12.0879 66.8151 12.3039 66.8151 12.5919V13.8519H63.6651V12.5919C63.6651 12.3159 63.7792 12.0999 64.0072 11.9439C64.2232 11.7999 64.6491 11.7279 65.2851 11.7279C65.8372 11.7279 66.2271 11.7999 66.4551 11.9439ZM71.3258 10.2879H73.8278V11.8179C73.8278 11.5419 73.9418 11.2719 74.1698 11.0079C74.3978 10.7439 74.6858 10.5279 75.0338 10.3599C75.3938 10.1919 75.7478 10.1079 76.0958 10.1079H77.0318V12.2859H76.1318C75.3878 12.2859 74.8358 12.3999 74.4758 12.6279C74.1278 12.8559 73.9538 13.2339 73.9538 13.7619V18.9999H71.3258V10.2879ZM81.0721 10.2879H78.4801V18.9999H81.1081V12.9519C81.1081 12.6039 81.1501 12.3459 81.2341 12.1779C81.3181 12.0099 81.4801 11.8959 81.7201 11.8359C81.9601 11.7639 82.3381 11.7279 82.8541 11.7279C83.2621 11.7279 83.5621 11.7639 83.7541 11.8359C83.9581 11.9079 84.0901 12.0279 84.1501 12.1959C84.2221 12.3639 84.2581 12.6159 84.2581 12.9519V18.9999H86.8861V12.6099C86.8861 11.7459 86.6581 11.1159 86.2021 10.7199C85.7581 10.3119 84.9781 10.1079 83.8621 10.1079C82.2061 10.1079 81.2761 10.5219 81.0721 11.3499V10.2879Z" fill="#892DFF"/>
</svg>
